# Exported from Wings 3D 1.5.2
mtllib skybox.mtl
o sky
#8 vertices, 6 faces
v -1.00000000 -1.00000000 -1.00000000
v -1.00000000 -1.00000000 1.00000000
v -1.00000000 1.00000000 -1.00000000
v -1.00000000 1.00000000 1.00000000
v 1.00000000 -1.00000000 -1.00000000
v 1.00000000 -1.00000000 1.00000000
v 1.00000000 1.00000000 -1.00000000
v 1.00000000 1.00000000 1.00000000
vt 9.3241512e-4 0.74890505
vt 1.9553212e-3 0.50120835
vt 0.25022039 0.25573423
vt 0.25074964 0.74864758
vt 0.25083582 0.99863561
vt 0.25125351 0.74897790
vt 0.25144033 0.50115784
vt 0.49789594 0.25346974
vt 0.49902637 0.99875266
vt 0.49917042 0.50093991
vt 0.49950740 0.74920325
vt 0.49978874 0.74927079
vt 0.74615193 0.74923002
vt 0.74640124 0.50117932
vt 0.99881071 0.74946758
vt 0.99902721 0.50098819
vn -0.57735027 -0.57735027 -0.57735027
vn -0.57735027 -0.57735027 0.57735027
vn -0.57735027 0.57735027 -0.57735027
vn -0.57735027 0.57735027 0.57735027
vn 0.57735027 -0.57735027 -0.57735027
vn 0.57735027 -0.57735027 0.57735027
vn 0.57735027 0.57735027 -0.57735027
vn 0.57735027 0.57735027 0.57735027
g sky_sky_auv
usemtl sky_auv
s 1
f 1/3/1 5/8/5 6/10/6 2/7/2
f 2/7/2 4/4/4 3/1/3 1/2/1
f 2/7/2 6/10/6 8/12/8 4/4/4
f 3/15/3 7/13/7 5/14/5 1/16/1
f 4/6/4 8/11/8 7/9/7 3/5/3
f 5/14/5 7/13/7 8/12/8 6/10/6
